<svg xmlns="http://www.w3.org/2000/svg" width="24" height="24" viewBox="0 0 24 24" fill="none">
  <path d="M7.243 17.9927H3V13.7445L14.435 2.29558C14.6225 2.10789 14.8768 2.00244 15.142 2.00244C15.4072 2.00244 15.6615 2.10789 15.849 2.29558L18.678 5.12703C18.771 5.22002 18.8447 5.33044 18.8951 5.45199C18.9454 5.57353 18.9713 5.70382 18.9713 5.83539C18.9713 5.96697 18.9454 6.09725 18.8951 6.2188C18.8447 6.34035 18.771 6.45077 18.678 6.54376L7.243 17.9927ZM3 19.9951H21V21.9976H3V19.9951Z" fill="#FFB098"/>
  <path d="M14.435 2.29327C14.6225 2.1058 14.8768 2.00049 15.142 2.00049C15.4072 2.00049 15.6615 2.1058 15.849 2.29327L18.678 5.12127C18.771 5.21415 18.8447 5.32444 18.8951 5.44583C18.9454 5.56723 18.9713 5.69736 18.9713 5.82877C18.9713 5.96019 18.9454 6.09032 18.8951 6.21172C18.8447 6.33311 18.771 6.4434 18.678 6.53627L12.9605 12.2538L14.435 2.29327Z" fill="#EFA1BB"/>
  <path d="M21 19.9713V21.9713H15.142L12 19.9713H21Z" fill="#EFA1BB"/>
</svg>