<svg xmlns="http://www.w3.org/2000/svg" width="24" height="24" viewBox="0 0 24 24" fill="none">
  <path d="M8.60251 19.1025C8.54724 19.154 8.50291 19.2161 8.47217 19.2851C8.44143 19.3541 8.4249 19.4286 8.42356 19.5041C8.42223 19.5796 8.43612 19.6547 8.46441 19.7247C8.49271 19.7947 8.53481 19.8584 8.58823 19.9118C8.64164 19.9652 8.70527 20.0073 8.77531 20.0356C8.84535 20.0639 8.92037 20.0778 8.9959 20.0765C9.07143 20.0751 9.14591 20.0586 9.21491 20.0278C9.28391 19.9971 9.34601 19.9528 9.39751 19.8975L16.8975 12.3975C17.0028 12.292 17.062 12.1491 17.062 12C17.062 11.8509 17.0028 11.708 16.8975 11.6025L9.39751 4.10251C9.29088 4.00315 9.14984 3.94905 9.00412 3.95163C8.85839 3.9542 8.71935 4.01323 8.61629 4.11629C8.51323 4.21935 8.4542 4.35839 8.45163 4.50411C8.44905 4.64984 8.50315 4.79088 8.60251 4.89751L15.7041 12L8.60251 19.1025Z" fill="white"/>
</svg>