<svg xmlns="http://www.w3.org/2000/svg" width="24" height="24" viewBox="0 0 24 24" fill="none">
  <path d="M22.5 9.5625C22.5 16.125 12.7697 21.4369 12.3553 21.6562C12.2461 21.715 12.124 21.7458 12 21.7458C11.876 21.7458 11.7539 21.715 11.6447 21.6562C11.2303 21.4369 1.5 16.125 1.5 9.5625C1.50174 8.02146 2.11468 6.54404 3.20436 5.45436C4.29404 4.36468 5.77146 3.75174 7.3125 3.75C9.24844 3.75 10.9434 4.5825 12 5.98969C13.0566 4.5825 14.7516 3.75 16.6875 3.75C18.2285 3.75174 19.706 4.36468 20.7956 5.45436C21.8853 6.54404 22.4983 8.02146 22.5 9.5625Z" fill="#FFB098"/>
  <path d="M16.6876 3.75C14.7517 3.75 13.0567 4.5825 12.0001 5.98969C9.99974 10.5 12.0001 13 15.0002 13C18.1097 13 17.9996 16 16.6876 18.7387C19.4464 16.5227 22.5001 13.2389 22.5001 9.5625C22.4984 8.02146 21.8854 6.54404 20.7957 5.45436C19.706 4.36468 18.2286 3.75174 16.6876 3.75Z" fill="#EFA1BB"/>
</svg>