<svg xmlns="http://www.w3.org/2000/svg" width="20" height="20" viewBox="0 0 20 20" fill="none">
  <path d="M16.8446 17.4988C16.0147 18.7388 15.1347 19.9487 13.7948 19.9687C12.4549 19.9987 12.0249 19.1787 10.505 19.1787C8.97513 19.1787 8.50516 19.9487 7.23524 19.9987C5.92533 20.0487 4.9354 18.6788 4.09545 17.4688C2.38556 14.999 1.07565 10.4493 2.83553 7.38951C3.70548 5.86961 5.26537 4.90967 6.95526 4.87968C8.23518 4.85968 9.4551 5.74962 10.245 5.74962C11.025 5.74962 12.5049 4.67969 14.0548 4.83968C14.7047 4.86968 16.5246 5.09966 17.6945 6.81955C17.6046 6.87954 15.5247 8.09946 15.5447 10.6293C15.5747 13.6491 18.1945 14.659 18.2245 14.669C18.1945 14.739 17.8045 16.1089 16.8446 17.4988ZM11.135 1.4999C11.8649 0.669955 13.0749 0.0399973 14.0748 0C14.2048 1.16992 13.7348 2.34984 13.0349 3.18979C12.3449 4.03973 11.205 4.69969 10.0851 4.60969C9.93506 3.45977 10.495 2.25985 11.135 1.4999Z" fill="white"/>
</svg>