<svg
                                xmlns="http://www.w3.org/2000/svg"
                                width="20"
                                height="20"
                                viewBox="0 0 20 20"
                                fill="none"
                            >
                                <path
                                    d="M10 0C7.25 0 5 2.8 5 6.25C5 9.7 7.25 12.5 10 12.5C12.75 12.5 15 9.7 15 6.25C15 2.8 12.75 0 10 0ZM4.775 12.5C2.125 12.625 0 14.8 0 17.5V20H20V17.5C20 14.8 17.9 12.625 15.225 12.5C13.875 14.025 12.025 15 10 15C7.975 15 6.125 14.025 4.775 12.5Z"
                                    fill="#FFB098"
                                />
                                <path
                                    fillRule="evenodd"
                                    clipRule="evenodd"
                                    d="M12.5091 11.6534C11.5885 7.83696 10.8417 3.95281 10.2773 0.00976562C12.8997 0.190459 15 2.91697 15 6.25023C15 8.55507 13.9958 10.5698 12.5091 11.6534ZM14.8313 20.0002C14.2242 18.0785 13.6619 16.137 13.1457 14.1767C13.9192 13.7528 14.622 13.1814 15.225 12.5002C17.9 12.6252 20 14.8002 20 17.5002V20.0002H14.8313Z"
                                    fill="#EFA1BB"
                                />
                            </svg>