<svg
                                xmlns="http://www.w3.org/2000/svg"
                                width="20"
                                height="20"
                                viewBox="0 0 20 20"
                                fill="none"
                            >
                                <path
                                    d="M10.7083 0.292786L19.7083 9.29279C20.3383 9.92279 19.8923 10.9998 19.0013 10.9998H18.0013V16.9998C18.0013 17.7954 17.6852 18.5585 17.1226 19.1211C16.56 19.6837 15.797 19.9998 15.0013 19.9998H14.0013V12.9998C14.0014 12.2346 13.709 11.4983 13.184 10.9415C12.6591 10.3848 11.9412 10.0497 11.1773 10.0048L11.0013 9.99979H9.00132C8.20567 9.99979 7.44261 10.3159 6.88 10.8785C6.31739 11.4411 6.00132 12.2041 6.00132 12.9998V19.9998H5.00132C4.20567 19.9998 3.44261 19.6837 2.88 19.1211C2.31739 18.5585 2.00132 17.7954 2.00132 16.9998V10.9998H1.00132C0.111321 10.9998 -0.335679 9.92279 0.294321 9.29279L9.29432 0.292786C9.48185 0.105315 9.73616 0 10.0013 0C10.2665 0 10.5208 0.105315 10.7083 0.292786ZM11.0013 11.9998C11.2665 11.9998 11.5209 12.1051 11.7084 12.2927C11.896 12.4802 12.0013 12.7346 12.0013 12.9998V19.9998H8.00132V12.9998C8.00135 12.7549 8.09128 12.5184 8.25404 12.3354C8.41679 12.1524 8.64107 12.0354 8.88432 12.0068L9.00132 11.9998H11.0013Z"
                                    fill="#FFB098"
                                />
                                <path
                                    d="M6.00142 14.3008C4.456 12.0188 3.4351 9.3526 3.11188 6.47533L9.29442 0.292786C9.48195 0.105315 9.73626 0 10.0014 0C10.2666 0 10.5209 0.105315 10.7084 0.292786L19.7084 9.29279C20.3384 9.92279 19.8924 10.9998 19.0014 10.9998H18.0014V16.9998C18.0014 17.7954 17.6854 18.5585 17.1227 19.1211C16.5601 19.6837 15.7971 19.9998 15.0014 19.9998H14.0014V12.9998C14.0015 12.2346 13.7091 11.4983 13.1841 10.9415C12.6592 10.3848 11.9413 10.0497 11.1774 10.0048L11.0014 9.99979H9.00142C8.20577 9.99979 7.44271 10.3159 6.8801 10.8785C6.31749 11.4411 6.00142 12.2041 6.00142 12.9998V14.3008Z"
                                    fill="#EFA1BB"
                                />
                            </svg>