<svg xmlns="http://www.w3.org/2000/svg" width="20" height="20" viewBox="0 0 20 20" fill="none">
  <path fill-rule="evenodd" clip-rule="evenodd" d="M3.33333 0C1.49238 0 0 1.49238 0 3.33333V16.6667C0 18.5076 1.49238 20 3.33333 20H16.6667C18.5076 20 20 18.5076 20 16.6667V3.33333C20 1.49238 18.5076 0 16.6667 0H3.33333ZM11.0163 4.30317C10.5701 3.51142 9.42992 3.51142 8.98366 4.30317L7.88165 6.25832C7.71517 6.5537 7.42842 6.76203 7.09606 6.82909L4.89606 7.27298C4.00516 7.45274 3.65283 8.53709 4.26793 9.20618L5.78685 10.8584C6.01632 11.108 6.12584 11.4451 6.08692 11.7819L5.82925 14.0114C5.72491 14.9143 6.64731 15.5845 7.47373 15.2062L9.51448 14.2722C9.82278 14.1311 10.1772 14.1311 10.4855 14.2722L12.5263 15.2062C13.3527 15.5845 14.2751 14.9143 14.1708 14.0114L13.9131 11.7819C13.8742 11.4451 13.9837 11.108 14.2132 10.8584L15.7321 9.20618C16.3472 8.53709 15.9948 7.45274 15.1039 7.27298L12.9039 6.82909C12.5716 6.76203 12.2848 6.55369 12.1183 6.25832L11.0163 4.30317Z" fill="#FFB098"/>
  <path d="M20 3.68733C19.0658 3.45621 18.0888 3.33333 17.0833 3.33333C14.9878 3.33333 13.0172 3.86637 11.2992 4.80468L12.1183 6.25813C12.203 6.40869 12.3185 6.53645 12.4556 6.63411C12.5879 6.72851 12.7405 6.79606 12.9041 6.82942L15.1038 7.27294C15.9949 7.45279 16.3472 8.53678 15.732 9.20654L14.2131 10.8586C13.9836 11.1084 13.8741 11.4453 13.9132 11.7822L14.1707 14.0112C14.2749 14.9145 13.3529 15.5843 12.5264 15.2059L10.4854 14.2725C10.1774 14.1309 9.82259 14.1309 9.51457 14.2725L7.47355 15.2059C6.64714 15.5843 5.7251 14.9145 5.82926 14.0112L6.08683 11.7822C6.10514 11.6243 6.0909 11.4665 6.04696 11.3175C6.00708 11.1824 5.94279 11.0547 5.85612 10.9408C5.30396 12.325 5 13.8354 5 15.4167C5 17.0386 5.31982 18.5864 5.89966 20H16.6667C18.5075 20 20 18.5075 20 16.6667V3.68733Z" fill="#EFA1BB"/>
</svg>