<svg xmlns="http://www.w3.org/2000/svg" width="8" height="16" viewBox="0 0 8 16" fill="none">
  <path d="M8 1.80103V0.169222C8 0.0277846 7.87059 -0.0503227 7.78319 0.0362286L0.206746 7.46908C0.142374 7.53196 0.0902859 7.61248 0.0544558 7.70449C0.0186256 7.7965 0 7.89757 0 8C0 8.10243 0.0186256 8.2035 0.0544558 8.29551C0.0902859 8.38752 0.142374 8.46804 0.206746 8.53092L7.78319 15.9638C7.87227 16.0503 8 15.9722 8 15.8308V14.199C8 14.0955 7.96135 13.9963 7.89748 13.933L1.84708 8.00106L7.89748 2.06702C7.96135 2.00369 8 1.90447 8 1.80103Z" fill="white"/>
</svg>