 <svg xmlns="http://www.w3.org/2000/svg" width="37" height="36" viewBox="0 0 37 36" fill="none">
                            <path
                                d="M3.50001 18C3.50001 26.2845 10.2155 33 18.5 33C26.7845 33 33.5 26.2845 33.5 18C33.5 9.88314 27.0535 3.27242 19.001 3.00821C18.725 2.99915 18.5 3.22386 18.5 3.5V5.50004C18.5 5.77617 18.724 5.99893 18.9999 6.01045C21.6431 6.1208 24.1813 7.10224 26.2146 8.80924C28.3759 10.6236 29.8286 13.1416 30.3176 15.9207C30.8065 18.6999 30.3004 21.5625 28.8882 24.0055C27.4759 26.4486 25.2479 28.3158 22.5956 29.2791C19.9432 30.2424 17.0362 30.2402 14.3854 29.2729C11.7345 28.3055 9.50934 26.4349 8.10083 23.9897C6.69232 21.5445 6.19058 18.6812 6.68376 15.9027C7.15023 13.2748 8.47858 10.8818 10.4522 9.09782C10.6444 8.92414 10.9379 8.93791 11.1211 9.12105L13.1465 11.1464C13.4614 11.4614 14 11.2383 14 10.7929V3.5C14 3.22386 13.7761 3 13.5 3H6.20676C5.76136 3 5.53826 3.53847 5.85314 3.85348L8.28934 6.29068C8.49449 6.49592 8.48184 6.83159 8.26945 7.02932C6.83044 8.36901 5.66808 9.98035 4.85053 11.7723C3.95861 13.7272 3.498 15.8512 3.50001 18Z"
                                fill="white"
                            />
                        </svg>