<svg xmlns="http://www.w3.org/2000/svg" width="20" height="20" viewBox="0 0 20 20" fill="none">
  <path fill-rule="evenodd" clip-rule="evenodd" d="M6.3 18.5157C6.78002 18.7449 7.30519 18.864 7.83714 18.8643H15.4743C16.3259 18.8642 17.1495 18.5599 17.7965 18.0062C18.4435 17.4524 18.8714 16.6857 19.0029 15.8443L19.8971 10.1257C19.9611 9.71799 19.936 9.30129 19.8235 8.90423C19.7111 8.50717 19.5139 8.13919 19.2457 7.82559C18.9774 7.51199 18.6444 7.26023 18.2696 7.08762C17.8947 6.91501 17.487 6.82565 17.0743 6.82568H12.3857V3.45997C12.3864 2.94578 12.2163 2.44592 11.9022 2.03882C11.5881 1.63173 11.1477 1.34044 10.6502 1.21066C10.1527 1.08088 9.62611 1.11996 9.15318 1.32176C8.68025 1.52357 8.28771 1.87668 8.03714 2.32568L5.07 7.62568C4.89096 7.94564 4.79701 8.30618 4.79714 8.67283V16.4471C4.79708 16.8518 4.91163 17.2483 5.12753 17.5906C5.34344 17.9329 5.65188 18.2071 6.01714 18.3814L6.30285 18.5171L6.3 18.5157ZM1.49142 7.88711C1.30445 7.88692 1.11928 7.92359 0.946482 7.99501C0.773688 8.06643 0.616665 8.17121 0.484389 8.30335C0.352113 8.43549 0.247178 8.59241 0.175584 8.76513C0.103989 8.93786 0.0671386 9.123 0.0671387 9.30997V16.6128C0.0671387 16.9906 0.217197 17.3528 0.484302 17.6199C0.751408 17.8871 1.11368 18.0371 1.49142 18.0371H2.2C2.38944 18.0371 2.57112 17.9619 2.70507 17.8279C2.83903 17.6939 2.91428 17.5123 2.91428 17.3228V8.59997C2.91428 8.41053 2.83903 8.22885 2.70507 8.09489C2.57112 7.96094 2.38944 7.88568 2.2 7.88568L1.49142 7.88711Z" fill="#FFB098"/>
  <path fill-rule="evenodd" clip-rule="evenodd" d="M1.49435 7.88565C1.30738 7.88546 1.12221 7.92212 0.949412 7.99355C0.776618 8.06497 0.619594 8.16974 0.487319 8.30189C0.355043 8.43403 0.250108 8.59095 0.178513 8.76367C0.106919 8.93639 0.0700683 9.12153 0.0700684 9.30851V16.6114C0.0700684 16.9891 0.220127 17.3514 0.487232 17.6185C0.754337 17.8856 1.11661 18.0356 1.49435 18.0356H2.20293C2.39237 18.0356 2.57405 17.9604 2.708 17.8264C2.84196 17.6925 2.91721 17.5108 2.91721 17.3214V8.5985C2.91721 8.40906 2.84196 8.22738 2.708 8.09343C2.57405 7.95947 2.39237 7.88422 2.20293 7.88422L1.49435 7.88565Z" fill="#EFA1BB"/>
  <path d="M19.9001 10.1242C19.964 9.71653 19.9389 9.29982 19.8265 8.90276C19.714 8.50571 19.5169 8.13772 19.2486 7.82413C18.9804 7.51053 18.6474 7.25877 18.2725 7.08616C17.8977 6.91355 17.4899 6.82418 17.0772 6.82422H12.3886C12.3886 7.32269 15.9998 8 11.4998 9C5.56184 10.3195 18.4998 19.0493 19.9001 10.1242Z" fill="#EFA1BB"/>
</svg>