<svg xmlns="http://www.w3.org/2000/svg" width="30" height="30" viewBox="0 0 30 30" fill="none">
  <g opacity="0.7" clip-path="url(#clip0_798_6286)">
    <path fill-rule="evenodd" clip-rule="evenodd" d="M7.07751 0.599833V0.607033C10.7111 10.8742 13.5215 18.817 17.0951 28.9222C19.7846 28.9888 22.6518 29.3647 22.9022 29.3975L22.9199 29.3998C20.9789 23.9068 18.9086 18.0537 16.9129 12.4118L16.9118 12.4089L16.9105 12.4051C15.4524 8.28291 14.0342 4.27355 12.7355 0.599833H7.07751Z" fill="#E50913"/>
    <path d="M7.07745 29.3999V0.599854L12.7355 16.5983V28.9223C10.4495 29.0255 9.32505 29.1299 7.07745 29.3999Z" fill="#B1060E"/>
    <path d="M17.2618 13.4146L17.2619 0.598633L22.9199 0.599833C22.9127 9.04423 22.8658 19.9678 22.9174 29.3998L17.2618 13.4146Z" fill="#B1060E"/>
  </g>
  <defs>
    <clipPath id="clip0_798_6286">
      <rect width="28.8" height="28.8" fill="white" transform="translate(0.599915 0.599854)"/>
    </clipPath>
  </defs>
</svg>