<svg xmlns="http://www.w3.org/2000/svg" width="24" height="24" viewBox="0 0 24 24" fill="none">
  <path d="M20.336 3.22098L3.87298 8.70998C3.80557 8.7324 3.74658 8.7748 3.70384 8.83154C3.66111 8.88828 3.63665 8.95669 3.63372 9.02766C3.63079 9.09864 3.64953 9.16883 3.68744 9.2289C3.72535 9.28897 3.78065 9.33609 3.84598 9.36398L9.89598 11.957C9.92768 11.9707 9.9624 11.976 9.99674 11.9723C10.0311 11.9686 10.0639 11.9561 10.092 11.936L16.023 7.69798C16.207 7.56798 16.433 7.79398 16.303 7.97798L12.065 13.909C12.0452 13.937 12.033 13.9697 12.0294 14.0039C12.0259 14.038 12.0313 14.0725 12.045 14.104L14.637 20.154C14.6648 20.2193 14.7118 20.2747 14.7718 20.3127C14.8318 20.3507 14.902 20.3695 14.973 20.3667C15.0439 20.3639 15.1124 20.3395 15.1692 20.2969C15.226 20.2543 15.2685 20.1953 15.291 20.128L20.78 3.66398C20.8006 3.60227 20.8037 3.53603 20.7888 3.47268C20.7739 3.40934 20.7416 3.35141 20.6956 3.30539C20.6496 3.25938 20.5916 3.2271 20.5283 3.21219C20.4649 3.19728 20.3977 3.20033 20.336 3.22098Z" fill="#FFB098"/>
  <path d="M12.0366 13.9092L16.2746 7.97823C19.7169 6.76081 20.3975 4.29964 20.3076 3.22123C20.3693 3.20057 20.4365 3.19753 20.4999 3.21244C20.5632 3.22735 20.6211 3.25962 20.6672 3.30564C20.7132 3.35165 20.7455 3.40958 20.7604 3.47293C20.7753 3.53627 20.7722 3.60252 20.7516 3.66423L15.2626 20.1282C15.24 20.1956 15.1976 20.2545 15.1408 20.2971C15.0839 20.3398 15.0155 20.3641 14.9445 20.3669C14.8736 20.3698 14.8034 20.3509 14.7434 20.3129C14.6834 20.2749 14.6364 20.2196 14.6086 20.1542L12.0166 14.1042C12.0029 14.0727 11.9975 14.0383 12.001 14.0041C12.0045 13.97 12.0168 13.9373 12.0366 13.9092Z" fill="#EFA1BB"/>
</svg>