<svg xmlns="http://www.w3.org/2000/svg" width="72" height="72" viewBox="0 0 72 72" fill="none">
  <path d="M28.7751 16.9438L28.7751 16.944L27.7854 18.7182C27.5329 19.1711 27.3298 19.5534 27.1504 19.8913C27.1286 19.9322 27.1071 19.9728 27.0858 20.013C26.5912 20.9459 26.1873 21.7077 25.3319 22.3818C25.2016 22.5036 25.0652 22.6187 24.9233 22.7267L24.9229 22.727C23.8183 23.5673 22.4611 23.8726 20.6325 24.2839C20.5417 24.3043 20.4497 24.325 20.3565 24.346C20.3564 24.3461 20.3564 24.3461 20.3563 24.3461C20.3559 24.3462 20.3554 24.3463 20.355 24.3464L18.4388 24.7809L18.4384 24.781C14.7016 25.6271 12.0739 26.2265 10.2542 26.944C8.46366 27.6499 7.84187 28.3228 7.60321 29.0882L28.7751 16.9438ZM28.7751 16.9438C30.6981 13.4955 32.0608 11.0599 33.2823 9.46559C34.5029 7.87246 35.2992 7.5 36.0001 7.5C36.7009 7.5 37.4972 7.87246 38.7178 9.46558C39.9394 11.0599 41.302 13.4955 43.225 16.9438L43.2302 16.953L43.2309 16.9544L44.2112 18.717L44.2118 18.7182M28.7751 16.9438L44.2118 18.7182M44.2118 18.7182C44.2597 18.8041 44.3068 18.8889 44.3534 18.9725C45.2935 20.6623 45.9796 21.8954 47.0739 22.7278L47.076 22.7294M44.2118 18.7182L47.076 22.7294M47.076 22.7294C48.182 23.5677 49.5364 23.8729 51.3615 24.284C51.4518 24.3043 51.5434 24.3249 51.6361 24.3459C51.6363 24.3459 51.6364 24.346 51.6366 24.346L53.5488 24.779L53.5494 24.7791M47.076 22.7294L53.5494 24.7791M53.5494 24.7791C57.2901 25.6246 59.9207 26.2243 61.7419 26.9423C63.5348 27.6493 64.1559 28.323 64.3935 29.0886L64.3939 29.0899M53.5494 24.7791L64.3939 29.0899M64.3939 29.0899C64.6375 29.8724 64.5043 30.83 63.4398 32.5218C62.365 34.2297 60.568 36.3373 58.0206 39.3146C58.0205 39.3146 58.0204 39.3147 58.0203 39.3148L56.7188 40.8353L64.3939 29.0899ZM53.9594 44.9067L53.9598 44.9055C54.3756 43.5686 55.2874 42.505 56.552 41.0299C56.6068 40.9659 56.6624 40.9012 56.7186 40.8356L53.9594 44.9067ZM53.9594 44.9067C53.5794 46.1318 53.6662 47.4214 53.8294 49.148L53.8279 49.1484L53.88 49.6765C53.8856 49.7346 53.8912 49.7932 53.8968 49.8523L53.8968 49.8524M53.9594 44.9067L53.8968 49.8524M53.8968 49.8524L53.8989 49.8738L53.8996 49.8809L53.9003 49.888L53.9084 49.9651M53.8968 49.8524L53.9084 49.9651M53.9084 49.9651L53.9561 50.4489L54.0997 51.9054L54.1 51.9083L54.1012 51.921L54.1012 51.9212C54.4849 55.8897 54.753 58.702 54.661 60.748C54.5692 62.7909 54.1307 63.6277 53.525 64.0873C52.947 64.5252 52.104 64.7031 50.2453 64.1703C48.3679 63.6321 45.9012 62.5016 42.3992 60.8897C42.3991 60.8897 42.399 60.8896 42.3989 60.8896L40.6148 60.068L53.9084 49.9651ZM31.3886 60.0676C31.47 60.03 31.5505 59.9928 31.6299 59.956C33.3446 59.1628 34.6172 58.5742 35.9997 58.5742C37.3805 58.5742 38.6522 59.1615 40.3663 59.9533C40.4479 59.991 40.5305 60.0291 40.6142 60.0677L31.3886 60.0676ZM31.3886 60.0676C31.388 60.0678 31.3875 60.0681 31.3869 60.0684L29.599 60.8889L29.5968 60.8899C26.0962 62.5034 23.6305 63.6344 21.7536 64.1721C19.896 64.7043 19.0523 64.5256 18.4722 64.0848L18.4712 64.0841C17.8677 63.6264 17.4296 62.7912 17.338 60.7479C17.2464 58.7023 17.5145 55.8902 17.8981 51.9224L31.3886 60.0676ZM17.8982 51.9212L18.0977 49.8757L18.0977 49.8749C18.1068 49.7812 18.1158 49.6888 18.1247 49.5976C18.3156 47.6394 18.4526 46.2347 18.0404 44.9059L18.04 44.9047C17.6268 43.576 16.7201 42.5164 15.4739 41.06C15.415 40.9912 15.3554 40.9215 15.2951 40.8509L15.2943 40.85L13.9797 39.3143C13.9796 39.3141 13.9794 39.3139 13.9793 39.3138C11.432 36.3351 9.6348 34.2267 8.55956 32.5185C7.49433 30.8262 7.36069 29.8692 7.60312 29.0884L17.8982 51.9212Z" stroke="#EFA1BB" stroke-width="3"/>
</svg>