<svg xmlns="http://www.w3.org/2000/svg" width="12" height="13" viewBox="0 0 12 13" fill="none">
  <path d="M9.24162 8.88353C8.5582 9.04763 7.84476 9.03968 7.16517 8.86039C6.48558 8.6811 5.86106 8.33606 5.34754 7.85619C4.83402 7.37631 4.44753 6.77656 4.22267 6.11066C3.99782 5.44475 3.94162 4.73348 4.05912 4.04053C4.04125 4.05779 4.02238 4.07398 4.00262 4.08903C3.86262 4.19553 3.68762 4.23503 3.33762 4.31403L3.02012 4.38603C1.79012 4.66453 1.17512 4.80353 1.02862 5.27403C0.882617 5.74403 1.30162 6.23453 2.14012 7.21503L2.35712 7.46853C2.59512 7.74703 2.71462 7.88653 2.76812 8.05853C2.82162 8.23103 2.80362 8.41703 2.76762 8.78853L2.73462 9.12703C2.60812 10.4355 2.54462 11.0895 2.92762 11.38C3.31062 11.671 3.88662 11.406 5.03762 10.8755L5.33612 10.7385C5.66312 10.5875 5.82662 10.5125 6.00012 10.5125C6.17362 10.5125 6.33712 10.5875 6.66462 10.7385L6.96212 10.8755C8.11362 11.4055 8.68962 11.6705 9.07212 11.3805C9.45562 11.0895 9.39212 10.4355 9.26562 9.12703L9.24162 8.88353Z" fill="#FFB798"/>
  <path d="M4.57659 3.204L4.41259 3.498C4.23259 3.821 4.19909 3.934 4.05909 4.0405C4.04109 4.058 4.07909 4.0255 4.05909 4.0405C3.94157 4.7335 3.99776 5.44484 4.22264 6.11079C4.44752 6.77675 4.83406 7.37653 5.34764 7.85642C5.86123 8.33632 6.48582 8.68134 7.16548 8.86058C7.84514 9.03983 8.55864 9.0477 9.24209 8.8835L9.23209 8.7885C9.19659 8.417 9.17859 8.231 9.23209 8.0585C9.28559 7.8865 9.40459 7.747 9.64309 7.4685L9.86009 7.215C10.6986 6.235 11.1176 5.7445 10.9711 5.274C10.8251 4.8035 10.2101 4.664 8.98009 4.386L8.66209 4.314C8.31259 4.235 8.13759 4.1955 7.99709 4.089C7.85709 3.9825 7.76709 3.821 7.58709 3.498L7.42359 3.204C6.79009 2.068 6.47359 1.5 6.00009 1.5C5.52659 1.5 5.21009 2.068 4.57659 3.204Z" fill="#EFA1BB"/>
</svg>