<svg xmlns="http://www.w3.org/2000/svg" width="24" height="24" viewBox="0 0 24 24" fill="none">
  <g clip-path="url(#clip0_279_33080)">
    <path d="M16.95 4.00697C17.1322 3.81837 17.233 3.56576 17.2307 3.30357C17.2284 3.04137 17.1232 2.79056 16.9378 2.60515C16.7524 2.41974 16.5016 2.31457 16.2394 2.31229C15.9772 2.31002 15.7246 2.41081 15.536 2.59297L11.646 6.48197C11.5522 6.5757 11.4251 6.62836 11.2925 6.62836C11.1599 6.62836 11.0328 6.5757 10.939 6.48197L8.464 4.00697C8.27467 3.82918 8.02361 3.73202 7.76392 3.73605C7.50424 3.74009 7.25631 3.84499 7.07259 4.02858C6.88888 4.21216 6.7838 4.46002 6.77958 4.7197C6.77537 4.97938 6.87234 5.23052 7.05 5.41997L8.464 6.83397C8.52133 6.8913 8.57967 6.9463 8.639 6.99897H5C4.46957 6.99897 3.96086 7.20968 3.58579 7.58475C3.21071 7.95983 3 8.46853 3 8.99897V18.999C3 19.5294 3.21071 20.0381 3.58579 20.4132C3.96086 20.7883 4.46957 20.999 5 20.999H19C19.5304 20.999 20.0391 20.7883 20.4142 20.4132C20.7893 20.0381 21 19.5294 21 18.999V8.99997C21 8.46953 20.7893 7.96083 20.4142 7.58575C20.0391 7.21068 19.5304 6.99997 19 6.99997H13.947C14.0063 6.94637 14.0643 6.89135 14.121 6.83497L16.95 4.00697Z" fill="#FFB098"/>
    <path d="M17.2305 3.30381C17.2328 3.56601 17.132 3.81861 16.9498 4.00721L14.1208 6.83521C14.0642 6.89159 14.0062 6.94661 13.9468 7.00021H18.9998C19.5303 7.00021 20.039 7.21093 20.4141 7.586C20.7891 7.96107 20.9998 8.46978 20.9998 9.00021V18.9992C20.9998 19.5296 20.7891 20.0384 20.4141 20.4134C20.039 20.7885 19.5303 20.9992 18.9998 20.9992C18.9998 20.9992 17.6977 15.3589 15.5358 12.5C13.4579 9.75201 8.63885 6.99921 8.63885 6.99921C8.57951 6.94655 8.52118 6.89155 8.46385 6.83421L7.04985 5.42021C6.87219 5.23076 6.77521 4.97962 6.77943 4.71994C6.78365 4.46026 6.88873 4.2124 7.07244 4.02882C7.25615 3.84524 7.50408 3.74033 7.76377 3.7363C8.02345 3.73227 8.27452 3.82942 8.46385 4.00721L10.9388 6.48221C11.0326 6.57595 11.1598 6.6286 11.2923 6.6286C11.4249 6.6286 11.5521 6.57595 11.6458 6.48221L15.5358 2.59321C15.7244 2.41105 15.9771 2.31026 16.2392 2.31254C16.5014 2.31482 16.7523 2.41999 16.9377 2.60539C17.1231 2.7908 17.2282 3.04161 17.2305 3.30381Z" fill="#EFA1BB"/>
  </g>
  <defs>
    <clipPath id="clip0_279_33080">
      <rect width="24" height="24" fill="white"/>
    </clipPath>
  </defs>
</svg>